<svg width="34" height="43" viewBox="0 0 34 43" fill="none" xmlns="http://www.w3.org/2000/svg">
<path d="M11.0261 1.2019L1.46474 31.6122C0.185431 35.6812 2.25965 35.5209 3.45668 34.9321L32.9374 18.067C29.6441 4.14998 16.9576 1.0248 11.0261 1.2019Z" fill="#FCBD42"/>
<path fill-rule="evenodd" clip-rule="evenodd" d="M10.0127 0.883228C10.1484 0.451746 10.5423 0.153486 10.9944 0.139994C17.1737 -0.0444333 30.5115 3.2018 33.9714 17.8224C34.0798 18.2805 33.8737 18.7554 33.465 18.9891L3.98429 35.8543C3.96511 35.8653 3.94556 35.8757 3.9257 35.8854C3.54664 36.0718 3.06842 36.2409 2.56623 36.2911C2.07069 36.3406 1.42812 36.2834 0.880307 35.8577C0.311514 35.4158 0.0528798 34.7405 0.00762286 33.9947C-0.0367311 33.2642 0.112638 32.371 0.451374 31.2936L10.0127 0.883228ZM1.46482 31.6122L11.0262 1.20189C16.9577 1.02484 29.6442 4.14996 32.9375 18.067L3.45677 34.9321C2.25974 35.5209 0.185517 35.6813 1.46482 31.6122Z" fill="#CC8026"/>
<path d="M1.06284 41.0408V33.9362C1.40811 34.3611 2.53464 33.9362 3.05478 34.2018V41.0408C3.05478 41.6384 2.68959 42.8999 1.85961 42.5347C1.19563 42.2426 1.05173 41.417 1.06284 41.0408Z" fill="#FCBD41"/>
<path d="M16.5006 29.5097V22.4051C16.8459 22.8301 17.9724 23.4675 18.4925 23.7331V29.5097C18.4925 30.1073 18.1273 31.3689 17.2974 31.0037C16.6334 30.7115 16.4895 29.886 16.5006 29.5097Z" fill="#FCBD41"/>
<path d="M4.08426 36.9573V29.8527C4.57975 30.2776 6.1963 30.9151 6.94267 31.1807V36.9573C6.94267 37.5549 6.41866 38.8164 5.22763 38.4512C4.27485 38.1591 4.06843 37.3335 4.08426 36.9573Z" fill="#FCBD41"/>
<path d="M32.8878 18.0504C29.5945 4.13333 16.7255 0.892044 10.7939 1.06909C10.7939 1.06909 9.97442 1.20188 9.46586 2.36385C8.95731 3.52582 9.7646 4.35579 9.7646 4.35579C13.7706 3.62542 23.3398 5.92608 29.2359 20.1088C29.9929 19.644 31.8089 18.4764 32.8878 18.0504Z" fill="#FFCD6C"/>
<path fill-rule="evenodd" clip-rule="evenodd" d="M10.6239 0.0204459C10.6696 0.0130093 10.7158 0.00860077 10.7621 0.00721969C13.9038 -0.0865875 18.8029 0.717839 23.362 3.35485C27.9535 6.01056 32.1995 10.5288 33.9216 17.8058C34.0432 18.3196 33.769 18.8446 33.278 19.0385C32.4455 19.3673 31.0693 20.2217 30.1786 20.7746C30.0358 20.8633 29.9054 20.9443 29.7918 21.0141C29.527 21.1766 29.2043 21.2152 28.9087 21.1195C28.6131 21.0238 28.3742 20.8035 28.2549 20.5166C22.5088 6.69473 13.3693 4.77848 9.95506 5.40098C9.60682 5.46445 9.24981 5.3503 9.00297 5.09656L9.76453 4.35582C13.6758 3.6427 22.8902 5.81897 28.8114 19.1222C28.9549 19.4445 29.0964 19.7733 29.2359 20.1087C29.3379 20.0461 29.4592 19.9707 29.5953 19.8861C29.761 19.783 29.9487 19.6663 30.1505 19.5422C31.0126 19.0123 32.1313 18.3491 32.8878 18.0504C29.5945 4.13336 16.7254 0.892067 10.7938 1.06911L10.6239 0.0204459ZM10.7938 1.06911C10.7938 1.06911 9.97434 1.20191 9.46579 2.36387C8.95723 3.52584 9.76453 4.35582 9.76453 4.35582C9.00297 5.09655 9.00259 5.09618 9.00222 5.09576L9.00148 5.09501L8.99988 5.09337L8.99648 5.08981L8.98873 5.08163C8.9832 5.07573 8.97683 5.06893 8.96977 5.06113C8.95564 5.04561 8.93858 5.02628 8.91914 5.00333C8.88042 4.95749 8.83182 4.89624 8.77838 4.8206C8.67262 4.67076 8.54206 4.45552 8.43534 4.18324C8.21564 3.62278 8.10356 2.82664 8.49255 1.93792C8.82996 1.16701 9.29719 0.68533 9.73239 0.396047C9.94529 0.254486 10.1415 0.164928 10.297 0.108782C10.3748 0.0806822 10.4427 0.0608691 10.4978 0.0469521C10.5254 0.0399936 10.55 0.0345223 10.571 0.0301666C10.5816 0.0279888 10.5913 0.0261296 10.6001 0.024536L10.6127 0.0223051L10.6184 0.021296L10.6212 0.0208709L10.6225 0.0206587C10.6232 0.0205524 10.6239 0.0204461 10.7938 1.06911Z" fill="#CC8026"/>
<path d="M33.1533 17.9674L29.2192 20.1586C29.2192 19.5223 29.4776 18.0841 30.7464 17.4362C32.3067 16.6395 32.9818 17.7295 33.1533 17.9674Z" fill="#CC8026"/>
<path fill-rule="evenodd" clip-rule="evenodd" d="M10.0302 3.12745C10.0302 2.83408 10.2681 2.59627 10.5614 2.59627C11.5534 2.59627 13.7845 2.6982 16.2612 3.34821C18.7331 3.9969 21.5014 5.20513 23.5072 7.45507C23.7024 7.67402 23.6831 8.00979 23.4641 8.20505C23.2451 8.40026 22.9094 8.38098 22.7142 8.16197C20.902 6.12923 18.3585 4.99696 15.9916 4.37579C13.6296 3.7559 11.495 3.65864 10.5614 3.65864C10.2681 3.65864 10.0302 3.42083 10.0302 3.12745Z" fill="#FFDC98"/>
<path fill-rule="evenodd" clip-rule="evenodd" d="M10.3622 1.49843C10.3635 1.20506 10.6023 0.968258 10.8957 0.969533C13.5175 0.980794 19.2224 1.50311 24.0105 4.81537C28.9969 8.26493 31.9217 13.6758 33.1064 17.0268C33.2041 17.3034 33.0592 17.6069 32.7826 17.7047C32.5061 17.8025 32.2025 17.6575 32.1047 17.3809C30.9655 14.1585 28.1481 8.96955 23.406 5.68906C18.8762 2.55539 13.4262 2.04279 10.8911 2.0319C10.5978 2.03063 10.361 1.79181 10.3622 1.49843Z" fill="#FAA036"/>
<path fill-rule="evenodd" clip-rule="evenodd" d="M5.06689 31.6454C5.36026 31.6454 5.59808 31.8832 5.59808 32.1766V36.6917C5.59808 36.9851 5.36026 37.2229 5.06689 37.2229C4.77352 37.2229 4.53571 36.9851 4.53571 36.6917V32.1766C4.53571 31.8832 4.77352 31.6454 5.06689 31.6454Z" fill="#FFCE6E"/>
<path fill-rule="evenodd" clip-rule="evenodd" d="M17.3135 25.2289C17.6069 25.2289 17.8447 25.4667 17.8447 25.7601V29.2128C17.8447 29.5062 17.6069 29.744 17.3135 29.744C17.0202 29.744 16.7823 29.5062 16.7823 29.2128V25.7601C16.7823 25.4667 17.0202 25.2289 17.3135 25.2289Z" fill="#FFCE6E"/>
<path fill-rule="evenodd" clip-rule="evenodd" d="M1.89651 33.7357C2.04323 33.7357 2.16211 33.8546 2.16211 34.0013V39.6464C2.16211 39.7931 2.04323 39.912 1.89651 39.912C1.74985 39.912 1.63092 39.7931 1.63092 39.6464V34.0013C1.63092 33.8546 1.74985 33.7357 1.89651 33.7357Z" fill="#FFCE6E"/>
<path d="M17.3605 8.52773C17.2037 8.86934 16.7329 8.98848 16.3089 8.79386C15.885 8.59928 15.6683 8.16456 15.8251 7.82296C15.982 7.48135 16.4528 7.36221 16.8767 7.55683C17.3007 7.75141 17.5173 8.18613 17.3605 8.52773Z" fill="#F6A60B"/>
<path d="M20.5949 11.0254C20.4381 11.367 19.9672 11.4862 19.5433 11.2916C19.1193 11.097 18.9027 10.6623 19.0595 10.3207C19.2163 9.9791 19.6871 9.8599 20.1111 10.0545C20.5351 10.2492 20.7516 10.6838 20.5949 11.0254Z" fill="#F6A60B"/>
<path d="M17.284 12.4435C17.1271 12.7851 16.6563 12.9043 16.2324 12.7097C15.8084 12.5151 15.5918 12.0804 15.7486 11.7388C15.9054 11.3972 16.3762 11.278 16.8002 11.4726C17.2241 11.6673 17.4408 12.1019 17.284 12.4435Z" fill="#F6A60B"/>
<path d="M13.632 10.6525C13.4752 10.9941 13.0043 11.1133 12.5804 10.9186C12.1564 10.7241 11.9398 10.2893 12.0966 9.94773C12.2534 9.60612 12.7242 9.48698 13.1482 9.6816C13.5722 9.87618 13.7888 10.3109 13.632 10.6525Z" fill="#F6A60B"/>
<path d="M14.7343 7.72693C14.518 8.19814 13.8685 8.36254 13.2838 8.09408C12.6989 7.82562 12.4002 7.22602 12.6165 6.75486C12.8328 6.28364 13.4822 6.11924 14.067 6.3877C14.6518 6.65616 14.9506 7.25576 14.7343 7.72693Z" fill="#F6A60B"/>
<path d="M17.8288 10.7002C17.7183 10.9411 17.3863 11.0251 17.0874 10.8879C16.7885 10.7507 16.6358 10.4442 16.7464 10.2034C16.8569 9.96254 17.1889 9.87851 17.4878 10.0157C17.7867 10.1529 17.9394 10.4594 17.8288 10.7002Z" fill="#F6A60B"/>
<path d="M21.1178 13.525C21.0072 13.7659 20.6753 13.8499 20.3764 13.7127C20.0775 13.5755 19.9248 13.269 20.0353 13.0282C20.1459 12.7873 20.4778 12.7033 20.7767 12.8405C21.0756 12.9777 21.2283 13.2842 21.1178 13.525Z" fill="#F6A60B"/>
<path d="M11.8033 7.94473C11.6927 8.18556 11.3608 8.2696 11.0619 8.13239C10.763 7.99519 10.6103 7.68869 10.7208 7.44786C10.8314 7.20702 11.1633 7.12298 11.4622 7.26019C11.7611 7.39739 11.9138 7.70389 11.8033 7.94473Z" fill="#F6A60B"/>
<path d="M18.8963 9.18925C18.8182 9.35928 18.5839 9.41856 18.373 9.32173C18.162 9.22489 18.0542 9.00854 18.1323 8.83856C18.2103 8.66858 18.4446 8.60925 18.6555 8.70608C18.8665 8.80297 18.9743 9.01927 18.8963 9.18925Z" fill="#F6A60B"/>
<path d="M16.164 9.94256C16.086 10.1126 15.8517 10.1719 15.6407 10.075C15.4297 9.9782 15.3219 9.76185 15.4 9.59187C15.4781 9.42189 15.7123 9.36256 15.9233 9.45945C16.1343 9.55628 16.2421 9.77258 16.164 9.94256Z" fill="#F6A60B"/>
<path d="M14.3902 9.32697C14.3121 9.49695 14.0778 9.55628 13.8668 9.45945C13.6559 9.36256 13.5481 9.14626 13.6261 8.97628C13.7041 8.80625 13.9384 8.74697 14.1494 8.8438C14.3604 8.94064 14.4682 9.15699 14.3902 9.32697Z" fill="#F6A60B"/>
<path d="M11.7478 6.4221C11.6698 6.59208 11.4356 6.65136 11.2246 6.55453C11.0136 6.45769 10.9058 6.24134 10.9838 6.07136C11.0619 5.90138 11.2962 5.84205 11.5072 5.93894C11.7181 6.03577 11.8259 6.25207 11.7478 6.4221Z" fill="#F6A60B"/>
<path d="M14.9846 11.247C14.9066 11.417 14.6723 11.4763 14.4613 11.3795C14.2503 11.2826 14.1426 11.0663 14.2206 10.8963C14.2986 10.7263 14.5329 10.667 14.7439 10.7638C14.9549 10.8607 15.0627 11.077 14.9846 11.247Z" fill="#F6A60B"/>
<path d="M19.1575 12.1504C19.0795 12.3204 18.8452 12.3797 18.6342 12.2829C18.4232 12.1861 18.3154 11.9697 18.3934 11.7997C18.4715 11.6297 18.7058 11.5704 18.9168 11.6672C19.1278 11.7641 19.2355 11.9804 19.1575 12.1504Z" fill="#F6A60B"/>
<path d="M13.7696 12.8176C13.6916 12.9876 13.4573 13.0469 13.2464 12.9501C13.0354 12.8532 12.9276 12.6369 13.0056 12.4669C13.0837 12.2969 13.318 12.2376 13.5289 12.3344C13.7399 12.4313 13.8477 12.6476 13.7696 12.8176Z" fill="#F6A60B"/>
<path d="M11.3251 9.24935C11.2471 9.41933 11.0128 9.47866 10.8018 9.38177C10.5909 9.28494 10.4831 9.06864 10.5611 8.89861C10.6391 8.72863 10.8734 8.66935 11.0844 8.76619C11.2954 8.86302 11.4031 9.07937 11.3251 9.24935Z" fill="#F6A60B"/>
<path d="M12.2712 12.6337C12.1932 12.8036 11.9589 12.863 11.7479 12.7661C11.537 12.6692 11.4292 12.4529 11.5072 12.283C11.5852 12.1129 11.8195 12.0537 12.0305 12.1505C12.2415 12.2473 12.3492 12.4637 12.2712 12.6337Z" fill="#F6A60B"/>
<path d="M15.0519 14.004C14.9738 14.174 14.7396 14.2333 14.5286 14.1364C14.3176 14.0396 14.2098 13.8233 14.2879 13.6533C14.3659 13.4833 14.6002 13.424 14.8111 13.5208C15.0221 13.6177 15.1299 13.834 15.0519 14.004Z" fill="#F6A60B"/>
<path d="M22.1527 12.0181C22.0747 12.188 21.8404 12.2473 21.6294 12.1505C21.4184 12.0536 21.3107 11.8373 21.3887 11.6673C21.4667 11.4973 21.701 11.4381 21.912 11.5349C22.123 11.6317 22.2308 11.848 22.1527 12.0181Z" fill="#F6A60B"/>
<path fill-rule="evenodd" clip-rule="evenodd" d="M4.31439 22.5827C4.64043 22.6619 4.9823 22.704 5.33459 22.704C7.58771 22.704 9.41419 20.9808 9.41419 18.8552C9.41419 17.1582 8.24989 15.7176 6.63376 15.2058L4.31439 22.5827Z" fill="#A63D3D"/>
<path fill-rule="evenodd" clip-rule="evenodd" d="M5.2074 21.664C5.43708 21.7259 5.67803 21.7596 5.92657 21.7612C7.51662 21.7714 8.81404 20.4652 8.82445 18.8435C8.83279 17.5488 8.01832 16.4446 6.88042 16.0467L5.2074 21.664Z" fill="#C73F3F"/>
<path d="M7.2046 20.4573C7.2046 20.7351 6.97172 20.9602 6.68451 20.9602C6.3973 20.9602 6.16443 20.7351 6.16443 20.4573C6.16443 20.1796 6.3973 19.9544 6.68451 19.9544C6.97172 19.9544 7.2046 20.1796 7.2046 20.4573Z" fill="#FFE5E5"/>
<path d="M7.02464 18.0171C7.02464 18.1988 6.87235 18.3461 6.68447 18.3461C6.49659 18.3461 6.3443 18.1988 6.3443 18.0171C6.3443 17.8354 6.49659 17.6881 6.68447 17.6881C6.87235 17.6881 7.02464 17.8354 7.02464 18.0171Z" fill="#FFE5E5"/>
<path d="M8.5363 18.4223C8.5363 18.6039 8.38401 18.7512 8.19613 18.7512C8.00825 18.7512 7.85596 18.6039 7.85596 18.4223C7.85596 18.2406 8.00825 18.0934 8.19613 18.0934C8.38401 18.0934 8.5363 18.2406 8.5363 18.4223Z" fill="#FFE5E5"/>
<path d="M22.0115 15.7529C22.0115 17.7751 20.2737 19.4145 18.1301 19.4145C15.9865 19.4145 14.2488 17.7751 14.2488 15.7529C14.2488 13.7306 15.9865 12.0912 18.1301 12.0912C20.2737 12.0912 22.0115 13.7306 22.0115 15.7529Z" fill="#A63D3D"/>
<path d="M20.9175 15.7896C20.9175 17.3937 19.5728 18.694 17.914 18.694C16.2551 18.694 14.9104 17.3937 14.9104 15.7896C14.9104 14.1857 16.2551 12.8854 17.914 12.8854C19.5728 12.8854 20.9175 14.1857 20.9175 15.7896Z" fill="#C73F3F"/>
<path d="M16.8386 16.3182C16.8386 16.596 16.6057 16.8211 16.3185 16.8211C16.0313 16.8211 15.7984 16.596 15.7984 16.3182C15.7984 16.0405 16.0313 15.8154 16.3185 15.8154C16.6057 15.8154 16.8386 16.0405 16.8386 16.3182Z" fill="#FFE5E5"/>
<path d="M17.3824 13.9612C17.3824 14.2389 17.1496 14.464 16.8623 14.464C16.5751 14.464 16.3423 14.2389 16.3423 13.9612C16.3423 13.6835 16.5751 13.4583 16.8623 13.4583C17.1496 13.4583 17.3824 13.6835 17.3824 13.9612Z" fill="#FFE5E5"/>
<path d="M20.0297 14.3525C20.0297 14.5687 19.8484 14.744 19.6248 14.744C19.4012 14.744 19.22 14.5687 19.22 14.3525C19.22 14.1364 19.4012 13.9611 19.6248 13.9611C19.8484 13.9611 20.0297 14.1364 20.0297 14.3525Z" fill="#FFE5E5"/>
<path d="M20.0295 16.3183C20.0295 16.6847 19.7223 16.9817 19.3434 16.9817C18.9644 16.9817 18.6572 16.6847 18.6572 16.3183C18.6572 15.9518 18.9644 15.6548 19.3434 15.6548C19.7223 15.6548 20.0295 15.9518 20.0295 16.3183Z" fill="#FFE5E5"/>
<path d="M18.41 17.8142C18.41 18.038 18.2224 18.2194 17.991 18.2194C17.7595 18.2194 17.5719 18.038 17.5719 17.8142C17.5719 17.5903 17.7595 17.4089 17.991 17.4089C18.2224 17.4089 18.41 17.5903 18.41 17.8142Z" fill="#FFE5E5"/>
<path fill-rule="evenodd" clip-rule="evenodd" d="M16.0864 27.7065C15.4021 26.4937 14.0486 25.668 12.4907 25.668C10.2425 25.668 8.42004 27.3873 8.42004 29.5082C8.42004 30.3156 8.68415 31.0647 9.13528 31.683L16.0864 27.7065Z" fill="#A63D3D"/>
<path fill-rule="evenodd" clip-rule="evenodd" d="M14.8758 27.8554C14.3579 26.9375 13.3335 26.3125 12.1543 26.3125C10.4527 26.3125 9.07324 27.6139 9.07324 29.2191C9.07324 29.8302 9.27318 30.3973 9.61463 30.8652L14.8758 27.8554Z" fill="#C73F3F"/>
<path d="M11.2908 27.1519C11.2908 27.3337 11.1385 27.4809 10.9506 27.4809C10.7628 27.4809 10.6104 27.3337 10.6104 27.1519C10.6104 26.9703 10.7628 26.823 10.9506 26.823C11.1385 26.823 11.2908 26.9703 11.2908 27.1519Z" fill="#FFE5E5"/>
<path d="M10.49 28.8838C10.49 29.0654 10.3377 29.2127 10.1499 29.2127C9.96197 29.2127 9.80963 29.0654 9.80963 28.8838C9.80963 28.7021 9.96197 28.5548 10.1499 28.5548C10.3377 28.5548 10.49 28.7021 10.49 28.8838Z" fill="#FFE5E5"/>
<path d="M13.5096 27.3295C13.5096 27.6073 13.2767 27.8324 12.9895 27.8324C12.7023 27.8324 12.4694 27.6073 12.4694 27.3295C12.4694 27.0518 12.7023 26.8266 12.9895 26.8266C13.2767 26.8266 13.5096 27.0518 13.5096 27.3295Z" fill="#FFE5E5"/>
<path d="M12.6197 11.271C12.6197 12.1015 11.9286 12.7748 11.076 12.7748C10.2234 12.7748 9.53223 12.1015 9.53223 11.271C9.53223 10.4405 10.2234 9.76729 11.076 9.76729C11.9286 9.76729 12.6197 10.4405 12.6197 11.271Z" fill="#45B21F"/>
<path fill-rule="evenodd" clip-rule="evenodd" d="M13.682 11.271C13.682 12.7143 12.4887 13.8371 11.0759 13.8371C9.66303 13.8371 8.46973 12.7143 8.46973 11.271C8.46973 9.82766 9.66303 8.7049 11.0759 8.7049C12.4887 8.7049 13.682 9.82766 13.682 11.271ZM11.0759 12.7747C11.9285 12.7747 12.6196 12.1015 12.6196 11.271C12.6196 10.4405 11.9285 9.76726 11.0759 9.76726C10.2233 9.76726 9.5321 10.4405 9.5321 11.271C9.5321 12.1015 10.2233 12.7747 11.0759 12.7747Z" fill="#FFD98E"/>
<path d="M14.4491 21.4699C14.4491 22.4692 13.616 23.2793 12.5883 23.2793C11.5605 23.2793 10.7274 22.4692 10.7274 21.4699C10.7274 20.4706 11.5605 19.6606 12.5883 19.6606C13.616 19.6606 14.4491 20.4706 14.4491 21.4699Z" fill="#45B21F"/>
<path fill-rule="evenodd" clip-rule="evenodd" d="M15.5115 21.4699C15.5115 23.0839 14.1744 24.3417 12.5883 24.3417C11.0021 24.3417 9.66504 23.0839 9.66504 21.4699C9.66504 19.856 11.0021 18.5982 12.5883 18.5982C14.1744 18.5982 15.5115 19.856 15.5115 21.4699ZM12.5883 23.2793C13.616 23.2793 14.4492 22.4692 14.4492 21.4699C14.4492 20.4707 13.616 19.6606 12.5883 19.6606C11.5606 19.6606 10.7274 20.4707 10.7274 21.4699C10.7274 22.4692 11.5606 23.2793 12.5883 23.2793Z" fill="#FFD98E"/>
<path d="M13.3208 21.1843C13.3208 21.7104 12.8822 22.1368 12.3412 22.1368C11.8002 22.1368 11.3615 21.7104 11.3615 21.1843C11.3615 20.6582 11.8002 20.2318 12.3412 20.2318C12.8822 20.2318 13.3208 20.6582 13.3208 21.1843Z" fill="#47E310"/>
<path d="M11.3658 10.9392C11.3658 11.282 11.0799 11.5599 10.7273 11.5599C10.3747 11.5599 10.0889 11.282 10.0889 10.9392C10.0889 10.5963 10.3747 10.3184 10.7273 10.3184C11.0799 10.3184 11.3658 10.5963 11.3658 10.9392Z" fill="#47E310"/>
<path d="M25.734 19.5005C25.734 20.1605 25.1846 20.6956 24.507 20.6956C23.8294 20.6956 23.28 20.1605 23.28 19.5005C23.28 18.8404 23.8294 18.3053 24.507 18.3053C25.1846 18.3053 25.734 18.8404 25.734 19.5005Z" fill="#F86512"/>
<path fill-rule="evenodd" clip-rule="evenodd" d="M26.7964 19.5005C26.7964 20.7734 25.7449 21.758 24.5071 21.758C23.2692 21.758 22.2177 20.7734 22.2177 19.5005C22.2177 18.2275 23.2692 17.2429 24.5071 17.2429C25.7449 17.2429 26.7964 18.2275 26.7964 19.5005ZM24.5071 20.6956C25.1847 20.6956 25.734 20.1605 25.734 19.5005C25.734 18.8404 25.1847 18.3053 24.5071 18.3053C23.8294 18.3053 23.2801 18.8404 23.2801 19.5005C23.2801 20.1605 23.8294 20.6956 24.5071 20.6956Z" fill="#FFD98E"/>
<path d="M6.68447 28.4011C6.68447 28.9444 6.23237 29.3848 5.67463 29.3848C5.11694 29.3848 4.66479 28.9444 4.66479 28.4011C4.66479 27.8579 5.11694 27.4175 5.67463 27.4175C6.23237 27.4175 6.68447 27.8579 6.68447 28.4011Z" fill="#F86512"/>
<path fill-rule="evenodd" clip-rule="evenodd" d="M7.74689 28.4011C7.74689 29.5572 6.79267 30.4472 5.67468 30.4472C4.5567 30.4472 3.60248 29.5572 3.60248 28.4011C3.60248 27.245 4.5567 26.3551 5.67468 26.3551C6.79267 26.3551 7.74689 27.245 7.74689 28.4011ZM5.67468 29.3848C6.23243 29.3848 6.68452 28.9444 6.68452 28.4011C6.68452 27.8579 6.23243 27.4175 5.67468 27.4175C5.11699 27.4175 4.66485 27.8579 4.66485 28.4011C4.66485 28.9444 5.11699 29.3848 5.67468 29.3848Z" fill="#FFD98E"/>
</svg>
