<svg width="43" height="43" viewBox="0 0 43 43" fill="none" xmlns="http://www.w3.org/2000/svg">
<path d="M37.625 8.95833C35.6363 8.33125 33.4504 8.0625 31.3542 8.0625C27.8604 8.0625 24.0979 8.77917 21.5 10.75C18.9021 8.77917 15.1396 8.0625 11.6459 8.0625C8.1521 8.0625 4.3896 8.77917 1.79169 10.75V36.9979C1.79169 37.4458 2.2396 37.8938 2.68752 37.8938C2.86669 37.8938 2.95627 37.8042 3.13544 37.8042C5.55419 36.6396 9.04794 35.8333 11.6459 35.8333C15.1396 35.8333 18.9021 36.55 21.5 38.5208C23.9188 36.9979 28.3084 35.8333 31.3542 35.8333C34.3104 35.8333 37.3563 36.3708 39.8646 37.7146C40.0438 37.8042 40.1334 37.8042 40.3125 37.8042C40.7604 37.8042 41.2084 37.3563 41.2084 36.9083V10.75C40.1334 9.94375 38.9688 9.40625 37.625 8.95833ZM5.37502 33.1458V12.5417C7.34585 11.9146 9.49585 11.6458 11.6459 11.6458C14.0467 11.6458 17.2538 12.3804 19.7084 13.4196V34.0238C17.2538 32.9846 14.0467 32.25 11.6459 32.25C9.49585 32.25 7.34585 32.5188 5.37502 33.1458ZM37.625 33.1458C35.6542 32.5188 33.5042 32.25 31.3542 32.25C28.9534 32.25 25.7463 32.9846 23.2917 34.0238V13.4196C25.7463 12.3625 28.9534 11.6458 31.3542 11.6458C33.5042 11.6458 35.6542 11.9146 37.625 12.5417V33.1458Z" fill="black"/>
<path opacity="0.3" d="M19.7083 13.4196C17.2537 12.3804 14.0467 11.6458 11.6458 11.6458C9.49583 11.6458 7.34583 11.9146 5.375 12.5417V33.1458C7.34583 32.5187 9.49583 32.25 11.6458 32.25C14.0467 32.25 17.2537 32.9846 19.7083 34.0237V13.4196Z" fill="black"/>
<path d="M31.3541 18.8125C32.9308 18.8125 34.4537 18.9738 35.8333 19.2783V16.555C34.4179 16.2862 32.895 16.125 31.3541 16.125C29.0608 16.125 26.9466 16.4117 25.0833 16.9671V19.78C26.8571 19.1529 28.9891 18.8125 31.3541 18.8125Z" fill="black"/>
<path d="M31.3541 23.5783C32.9308 23.5783 34.4537 23.7396 35.8333 24.0442V21.3208C34.4179 21.0521 32.895 20.8908 31.3541 20.8908C29.0608 20.8908 26.9466 21.1775 25.0833 21.7329V24.5458C26.8571 23.9367 28.9891 23.5783 31.3541 23.5783Z" fill="black"/>
<path d="M31.3541 28.3621C32.9308 28.3621 34.4537 28.5233 35.8333 28.8279V26.1046C34.4179 25.8358 32.895 25.6746 31.3541 25.6746C29.0608 25.6746 26.9466 25.9613 25.0833 26.5167V29.3296C26.8571 28.7025 28.9891 28.3621 31.3541 28.3621Z" fill="black"/>
</svg>
